<?xml version="1.0" encoding="UTF-8" standalone="no"?>
<svg
   width="744"
   height="129"
   viewBox="0 0 744 129"
   version="1.1"
   id="svg52"
   sodipodi:docname="logo 2.svg"
   inkscape:version="1.2.1 (9c6d41e, 2022-07-14)"
   inkscape:export-filename="logo.png"
   inkscape:export-xdpi="180"
   inkscape:export-ydpi="180"
   xmlns:inkscape="http://www.inkscape.org/namespaces/inkscape"
   xmlns:sodipodi="http://sodipodi.sourceforge.net/DTD/sodipodi-0.dtd"
   xmlns="http://www.w3.org/2000/svg"
   xmlns:svg="http://www.w3.org/2000/svg">
  <defs
     id="defs56">
    <rect
       x="314.78326"
       y="89.394641"
       width="214.92754"
       height="82.737593"
       id="rect1076" />
    <rect
       x="21.538462"
       y="78.769231"
       width="130.54532"
       height="79.981999"
       id="rect1068" />
    <rect
       x="155.69231"
       y="113.23077"
       width="381.53846"
       height="41.846154"
       id="rect908" />
    <rect
       x="538.46154"
       y="54.153846"
       width="393.84615"
       height="79.384615"
       id="rect902" />
    <rect
       x="160"
       y="71.384615"
       width="496.61539"
       height="137.23077"
       id="rect2793" />
  </defs>
  <sodipodi:namedview
     id="namedview54"
     pagecolor="#ffffff"
     bordercolor="#000000"
     borderopacity="0.25"
     inkscape:showpageshadow="2"
     inkscape:pageopacity="0.0"
     inkscape:pagecheckerboard="0"
     inkscape:deskcolor="#d1d1d1"
     showgrid="false"
     inkscape:zoom="0.66626026"
     inkscape:cx="212.37947"
     inkscape:cy="-126.07686"
     inkscape:window-width="1512"
     inkscape:window-height="854"
     inkscape:window-x="0"
     inkscape:window-y="38"
     inkscape:window-maximized="0"
     inkscape:current-layer="svg52" />
  <g
     fill="none"
     id="g50"
     transform="translate(28.354138,1.1341655)">
    <path
       fill="#0AC8FF"
       d="M 103.73889,60.267009 73.94595,6.20482 C 73.28668,5.0081457 71.90619,4.1732521 70.58923,4.1741183 L 11.0728,4.2132713 C 9.75586,4.2141388 8.37649,5.0508484 7.71788,6.2483904 L -22.003831,60.349743 c -0.6577,1.197537 -0.65659,2.869144 0.0041,4.065818 L 7.79321,118.47775 c 0.65922,1.19665 2.03974,2.03153 3.35753,2.03068 l 59.51558,-0.0391 c 1.31693,-8.4e-4 2.69635,-0.83756 3.35406,-2.03511 l 29.71937,-54.099497 c 0.66028,-1.198446 0.65919,-2.871865 -7.7e-4,-4.067633 z m -91.03031,53.333041 -0.032,-48.711974 26.80325,-0.01761 13.41769,24.347176 z m 42.60125,-20.005791 12.02485,21.819831 -48.04191,0.0317 z M 12.64115,11.11962 52.86209,35.449158 39.47646,59.81397 12.67315,59.83158 Z M 19.22294,9.2643879 67.26481,9.2327909 55.26869,31.068451 Z M 43.65075,62.339461 57.03638,37.974645 97.25729,62.304184 57.06844,86.686631 Z M 95.48879,55.397975 59.44302,33.593929 71.43912,11.758267 Z M 7.82544,16.178353 l 0.0286,43.65552 -24.02096,0.01568 z m -23.98892,48.728702 24.02095,-0.01568 0.0286,43.655495 z M 71.50654,112.88403 59.48169,91.064179 95.49869,69.212713 Z"
       id="path48"
       style="fill:#ff6600;fill-opacity:1;stroke-width:0.884012;opacity:0.98" />
    <path
       style="display:inline;fill:none;fill-rule:evenodd;stroke:#000000;stroke-width:1px;stroke-linecap:butt;stroke-linejoin:miter;stroke-opacity:1"
       d="m 247.38462,83.692308 v 0"
       id="path2733"
       inkscape:connector-type="polyline"
       inkscape:connector-curvature="0" />
    <text
       xml:space="preserve"
       id="text900"
       style="font-style:normal;font-variant:normal;font-weight:normal;font-stretch:normal;font-size:37.3333px;font-family:'FS Untitled';-inkscape-font-specification:'FS Untitled, Normal';font-variant-ligatures:normal;font-variant-caps:normal;font-variant-numeric:normal;font-variant-east-asian:normal;white-space:pre;shape-inside:url(#rect902);fill:#f08100" />
    <text
       xml:space="preserve"
       id="text906"
       style="font-style:normal;font-variant:normal;font-weight:normal;font-stretch:normal;font-size:37.3333px;font-family:'FS Untitled';-inkscape-font-specification:'FS Untitled, Normal';font-variant-ligatures:normal;font-variant-caps:normal;font-variant-numeric:normal;font-variant-east-asian:normal;white-space:pre;shape-inside:url(#rect908);fill:#f08100" />
    <text
       xml:space="preserve"
       style="font-style:normal;font-variant:normal;font-weight:normal;font-stretch:normal;font-size:82.9432px;font-family:'FS Untitled';-inkscape-font-specification:'FS Untitled, Normal';font-variant-ligatures:normal;font-variant-caps:normal;font-variant-numeric:normal;font-variant-east-asian:normal;fill:#ff6600;stroke-width:1.55519"
       x="-2.7713635"
       y="59.939835"
       id="text1060"
       transform="scale(1.0000695,0.9999305)"><tspan
         sodipodi:role="line"
         x="-2.7713635"
         y="59.939835"
         id="tspan1062"
         style="font-style:normal;font-variant:normal;font-weight:normal;font-stretch:normal;font-size:80.784px;font-family:'FS Untitled';-inkscape-font-specification:'FS Untitled, Normal';font-variant-ligatures:normal;font-variant-caps:normal;font-variant-numeric:normal;font-variant-east-asian:normal;fill:#ff6600;stroke-width:1.55519" /></text>
    <text
       xml:space="preserve"
       id="text1066"
       style="font-style:normal;font-variant:normal;font-weight:normal;font-stretch:normal;font-size:53.3333px;font-family:'FS Untitled';-inkscape-font-specification:'FS Untitled, Normal';font-variant-ligatures:normal;font-variant-caps:normal;font-variant-numeric:normal;font-variant-east-asian:normal;white-space:pre;shape-inside:url(#rect1068);fill:#ff6600"
       transform="matrix(1.5146998,0,0,1.5146998,-35.436048,-68.726242)" />
    <text
       xml:space="preserve"
       id="text1074"
       style="font-style:normal;font-variant:normal;font-weight:normal;font-stretch:normal;font-size:58.6263px;font-family:'FS Untitled';-inkscape-font-specification:'FS Untitled, Normal';font-variant-ligatures:normal;font-variant-caps:normal;font-variant-numeric:normal;font-variant-east-asian:normal;white-space:pre;shape-inside:url(#rect1076);fill:#552200"
       transform="matrix(1.377947,0,0,1.377947,-267.83451,-73.641715)" />
  </g>
</svg>
